<mxfile host="app.diagrams.net" modified="2021-09-05T15:35:21.273Z" agent="5.0 (Windows NT 10.0; Win64; x64) AppleWebKit/537.36 (KHTML, like Gecko) Chrome/92.0.4515.159 Safari/537.36" etag="siTIaknjhBYaBXzhnSHr" version="14.5.10" type="github">
  <diagram id="84DYd2oJogJ50CBNajp7" name="第 1 页">
    <mxGraphModel dx="1422" dy="762" grid="1" gridSize="10" guides="1" tooltips="1" connect="1" arrows="1" fold="1" page="1" pageScale="1" pageWidth="827" pageHeight="1169" math="0" shadow="0">
      <root>
        <mxCell id="0" />
        <mxCell id="1" parent="0" />
        <mxCell id="pUdsgsDDToOgOxMUS9t4-1" value="八大风险" style="rounded=0;whiteSpace=wrap;html=1;verticalAlign=top;fillColor=#e1d5e7;strokeColor=#9673a6;" vertex="1" parent="1">
          <mxGeometry x="30" y="130" width="770" height="100" as="geometry" />
        </mxCell>
        <mxCell id="pUdsgsDDToOgOxMUS9t4-2" value="信用风险" style="rounded=0;whiteSpace=wrap;html=1;fillColor=#f8cecc;strokeColor=#b85450;" vertex="1" parent="1">
          <mxGeometry x="50" y="160" width="80" height="60" as="geometry" />
        </mxCell>
        <mxCell id="pUdsgsDDToOgOxMUS9t4-3" value="市场风险" style="rounded=0;whiteSpace=wrap;html=1;fillColor=#f8cecc;strokeColor=#b85450;" vertex="1" parent="1">
          <mxGeometry x="140" y="160" width="80" height="60" as="geometry" />
        </mxCell>
        <mxCell id="pUdsgsDDToOgOxMUS9t4-4" value="流动性风险" style="rounded=0;whiteSpace=wrap;html=1;fillColor=#f8cecc;strokeColor=#b85450;" vertex="1" parent="1">
          <mxGeometry x="230" y="160" width="80" height="60" as="geometry" />
        </mxCell>
        <mxCell id="pUdsgsDDToOgOxMUS9t4-5" value="操作风险" style="rounded=0;whiteSpace=wrap;html=1;fillColor=#f8cecc;strokeColor=#b85450;" vertex="1" parent="1">
          <mxGeometry x="320" y="160" width="80" height="60" as="geometry" />
        </mxCell>
        <mxCell id="pUdsgsDDToOgOxMUS9t4-6" value="战略风险" style="rounded=0;whiteSpace=wrap;html=1;fillColor=#f8cecc;strokeColor=#b85450;" vertex="1" parent="1">
          <mxGeometry x="414" y="160" width="80" height="60" as="geometry" />
        </mxCell>
        <mxCell id="pUdsgsDDToOgOxMUS9t4-7" value="国别风险" style="rounded=0;whiteSpace=wrap;html=1;fillColor=#f8cecc;strokeColor=#b85450;" vertex="1" parent="1">
          <mxGeometry x="510" y="160" width="80" height="60" as="geometry" />
        </mxCell>
        <mxCell id="pUdsgsDDToOgOxMUS9t4-8" value="声誉风险" style="rounded=0;whiteSpace=wrap;html=1;fillColor=#f8cecc;strokeColor=#b85450;" vertex="1" parent="1">
          <mxGeometry x="610" y="160" width="80" height="60" as="geometry" />
        </mxCell>
        <mxCell id="pUdsgsDDToOgOxMUS9t4-9" value="法律风险" style="rounded=0;whiteSpace=wrap;html=1;fillColor=#f8cecc;strokeColor=#b85450;" vertex="1" parent="1">
          <mxGeometry x="700" y="160" width="80" height="60" as="geometry" />
        </mxCell>
        <mxCell id="pUdsgsDDToOgOxMUS9t4-10" value="三道防线" style="rounded=0;whiteSpace=wrap;html=1;verticalAlign=top;fillColor=#ffe6cc;strokeColor=#d79b00;" vertex="1" parent="1">
          <mxGeometry x="870" y="130" width="120" height="610" as="geometry" />
        </mxCell>
        <mxCell id="pUdsgsDDToOgOxMUS9t4-11" value="业务部门" style="rounded=0;whiteSpace=wrap;html=1;fillColor=#d5e8d4;strokeColor=#82b366;" vertex="1" parent="1">
          <mxGeometry x="885" y="160" width="90" height="60" as="geometry" />
        </mxCell>
        <mxCell id="pUdsgsDDToOgOxMUS9t4-13" value="五大体系" style="rounded=0;whiteSpace=wrap;html=1;verticalAlign=top;fillColor=#60a917;strokeColor=#2D7600;fontColor=#ffffff;" vertex="1" parent="1">
          <mxGeometry x="414" y="310" width="380" height="210" as="geometry" />
        </mxCell>
        <mxCell id="pUdsgsDDToOgOxMUS9t4-14" value="风险识别" style="rounded=0;whiteSpace=wrap;html=1;fillColor=#FF7A8C;" vertex="1" parent="1">
          <mxGeometry x="450" y="350" width="30" height="90" as="geometry" />
        </mxCell>
        <mxCell id="pUdsgsDDToOgOxMUS9t4-15" value="风险分析" style="rounded=0;whiteSpace=wrap;html=1;fillColor=#FF7A8C;" vertex="1" parent="1">
          <mxGeometry x="550" y="350" width="30" height="90" as="geometry" />
        </mxCell>
        <mxCell id="pUdsgsDDToOgOxMUS9t4-16" value="风险决策" style="rounded=0;whiteSpace=wrap;html=1;fillColor=#FF7A8C;" vertex="1" parent="1">
          <mxGeometry x="650" y="350" width="30" height="90" as="geometry" />
        </mxCell>
        <mxCell id="pUdsgsDDToOgOxMUS9t4-17" value="风险监控" style="rounded=0;whiteSpace=wrap;html=1;fillColor=#FF7A8C;" vertex="1" parent="1">
          <mxGeometry x="740" y="350" width="30" height="90" as="geometry" />
        </mxCell>
        <mxCell id="pUdsgsDDToOgOxMUS9t4-18" value="风险迭代" style="rounded=0;whiteSpace=wrap;html=1;fillColor=#FF7A8C;" vertex="1" parent="1">
          <mxGeometry x="450" y="450" width="330" height="50" as="geometry" />
        </mxCell>
        <mxCell id="pUdsgsDDToOgOxMUS9t4-19" value="" style="shape=flexArrow;endArrow=classic;html=1;exitX=0.75;exitY=1;exitDx=0;exitDy=0;entryX=0.5;entryY=0;entryDx=0;entryDy=0;" edge="1" parent="1" source="pUdsgsDDToOgOxMUS9t4-1" target="pUdsgsDDToOgOxMUS9t4-13">
          <mxGeometry width="50" height="50" relative="1" as="geometry">
            <mxPoint x="390" y="390" as="sourcePoint" />
            <mxPoint x="440" y="340" as="targetPoint" />
          </mxGeometry>
        </mxCell>
        <mxCell id="pUdsgsDDToOgOxMUS9t4-20" value="" style="endArrow=classic;html=1;entryX=0;entryY=0.5;entryDx=0;entryDy=0;exitX=1;exitY=0.5;exitDx=0;exitDy=0;" edge="1" parent="1" source="pUdsgsDDToOgOxMUS9t4-14" target="pUdsgsDDToOgOxMUS9t4-15">
          <mxGeometry width="50" height="50" relative="1" as="geometry">
            <mxPoint x="390" y="390" as="sourcePoint" />
            <mxPoint x="440" y="340" as="targetPoint" />
          </mxGeometry>
        </mxCell>
        <mxCell id="pUdsgsDDToOgOxMUS9t4-21" value="" style="endArrow=classic;html=1;entryX=0;entryY=0.5;entryDx=0;entryDy=0;exitX=1;exitY=0.5;exitDx=0;exitDy=0;" edge="1" parent="1" source="pUdsgsDDToOgOxMUS9t4-15" target="pUdsgsDDToOgOxMUS9t4-16">
          <mxGeometry width="50" height="50" relative="1" as="geometry">
            <mxPoint x="490" y="405" as="sourcePoint" />
            <mxPoint x="560" y="405" as="targetPoint" />
          </mxGeometry>
        </mxCell>
        <mxCell id="pUdsgsDDToOgOxMUS9t4-22" value="" style="endArrow=classic;html=1;entryX=0;entryY=0.5;entryDx=0;entryDy=0;exitX=1;exitY=0.5;exitDx=0;exitDy=0;" edge="1" parent="1" source="pUdsgsDDToOgOxMUS9t4-16" target="pUdsgsDDToOgOxMUS9t4-17">
          <mxGeometry width="50" height="50" relative="1" as="geometry">
            <mxPoint x="500" y="415" as="sourcePoint" />
            <mxPoint x="570" y="415" as="targetPoint" />
          </mxGeometry>
        </mxCell>
        <mxCell id="pUdsgsDDToOgOxMUS9t4-23" value="" style="shape=flexArrow;endArrow=classic;html=1;exitX=-0.008;exitY=0.087;exitDx=0;exitDy=0;entryX=1;entryY=0.5;entryDx=0;entryDy=0;exitPerimeter=0;" edge="1" parent="1" source="pUdsgsDDToOgOxMUS9t4-10" target="pUdsgsDDToOgOxMUS9t4-1">
          <mxGeometry width="50" height="50" relative="1" as="geometry">
            <mxPoint x="617.5" y="240" as="sourcePoint" />
            <mxPoint x="620" y="320" as="targetPoint" />
          </mxGeometry>
        </mxCell>
        <mxCell id="pUdsgsDDToOgOxMUS9t4-24" value="" style="shape=flexArrow;endArrow=classic;html=1;exitX=-0.033;exitY=0.472;exitDx=0;exitDy=0;entryX=1;entryY=0.5;entryDx=0;entryDy=0;exitPerimeter=0;" edge="1" parent="1" source="pUdsgsDDToOgOxMUS9t4-10" target="pUdsgsDDToOgOxMUS9t4-13">
          <mxGeometry width="50" height="50" relative="1" as="geometry">
            <mxPoint x="879.04" y="193.06999999999994" as="sourcePoint" />
            <mxPoint x="810" y="190" as="targetPoint" />
          </mxGeometry>
        </mxCell>
        <mxCell id="pUdsgsDDToOgOxMUS9t4-25" value="风控部门&lt;br&gt;合规部门" style="rounded=0;whiteSpace=wrap;html=1;fillColor=#d5e8d4;strokeColor=#82b366;" vertex="1" parent="1">
          <mxGeometry x="885" y="370" width="90" height="60" as="geometry" />
        </mxCell>
        <mxCell id="pUdsgsDDToOgOxMUS9t4-26" value="审计部门&lt;br&gt;监察部门" style="rounded=0;whiteSpace=wrap;html=1;fillColor=#d5e8d4;strokeColor=#82b366;" vertex="1" parent="1">
          <mxGeometry x="885" y="620" width="90" height="60" as="geometry" />
        </mxCell>
        <mxCell id="pUdsgsDDToOgOxMUS9t4-27" value="七大系统" style="rounded=0;whiteSpace=wrap;html=1;verticalAlign=top;fillColor=#1ba1e2;strokeColor=#006EAF;fontColor=#ffffff;" vertex="1" parent="1">
          <mxGeometry x="30" y="610" width="770" height="120" as="geometry" />
        </mxCell>
        <mxCell id="pUdsgsDDToOgOxMUS9t4-28" value="信贷业务系统" style="rounded=0;whiteSpace=wrap;html=1;fillColor=#a20025;strokeColor=#6F0000;fontColor=#ffffff;" vertex="1" parent="1">
          <mxGeometry x="50" y="640" width="110" height="30" as="geometry" />
        </mxCell>
        <mxCell id="pUdsgsDDToOgOxMUS9t4-30" value="信贷核心系统" style="rounded=0;whiteSpace=wrap;html=1;fillColor=#a20025;strokeColor=#6F0000;fontColor=#ffffff;" vertex="1" parent="1">
          <mxGeometry x="170" y="640" width="110" height="30" as="geometry" />
        </mxCell>
        <mxCell id="pUdsgsDDToOgOxMUS9t4-31" value="内控系统" style="rounded=0;whiteSpace=wrap;html=1;fillColor=#a20025;strokeColor=#6F0000;fontColor=#ffffff;" vertex="1" parent="1">
          <mxGeometry x="294" y="640" width="96" height="30" as="geometry" />
        </mxCell>
        <mxCell id="pUdsgsDDToOgOxMUS9t4-32" value="报表系统" style="rounded=0;whiteSpace=wrap;html=1;fillColor=#a20025;strokeColor=#6F0000;fontColor=#ffffff;" vertex="1" parent="1">
          <mxGeometry x="400" y="640" width="100" height="30" as="geometry" />
        </mxCell>
        <mxCell id="pUdsgsDDToOgOxMUS9t4-33" value="风控平台" style="rounded=0;whiteSpace=wrap;html=1;fillColor=#a20025;strokeColor=#6F0000;fontColor=#ffffff;" vertex="1" parent="1">
          <mxGeometry x="510" y="640" width="100" height="30" as="geometry" />
        </mxCell>
        <mxCell id="pUdsgsDDToOgOxMUS9t4-34" value="数据平台" style="rounded=0;whiteSpace=wrap;html=1;fillColor=#a20025;strokeColor=#6F0000;fontColor=#ffffff;" vertex="1" parent="1">
          <mxGeometry x="50" y="690" width="560" height="30" as="geometry" />
        </mxCell>
        <mxCell id="pUdsgsDDToOgOxMUS9t4-35" value="基础管理系统" style="rounded=0;whiteSpace=wrap;html=1;fillColor=#a20025;strokeColor=#6F0000;fontColor=#ffffff;" vertex="1" parent="1">
          <mxGeometry x="670" y="640" width="100" height="80" as="geometry" />
        </mxCell>
        <mxCell id="pUdsgsDDToOgOxMUS9t4-36" value="" style="shape=flexArrow;endArrow=classic;html=1;exitX=0.017;exitY=0.892;exitDx=0;exitDy=0;exitPerimeter=0;entryX=1;entryY=0.5;entryDx=0;entryDy=0;" edge="1" parent="1" source="pUdsgsDDToOgOxMUS9t4-10" target="pUdsgsDDToOgOxMUS9t4-27">
          <mxGeometry width="50" height="50" relative="1" as="geometry">
            <mxPoint x="866.04" y="672.9200000000001" as="sourcePoint" />
            <mxPoint x="800" y="670" as="targetPoint" />
          </mxGeometry>
        </mxCell>
        <mxCell id="pUdsgsDDToOgOxMUS9t4-38" value="" style="shape=flexArrow;endArrow=classic;html=1;exitX=0.5;exitY=1;exitDx=0;exitDy=0;entryX=0.75;entryY=0;entryDx=0;entryDy=0;" edge="1" parent="1" source="pUdsgsDDToOgOxMUS9t4-13" target="pUdsgsDDToOgOxMUS9t4-27">
          <mxGeometry width="50" height="50" relative="1" as="geometry">
            <mxPoint x="613.75" y="530" as="sourcePoint" />
            <mxPoint x="616" y="610" as="targetPoint" />
          </mxGeometry>
        </mxCell>
        <mxCell id="pUdsgsDDToOgOxMUS9t4-39" value="" style="shape=flexArrow;endArrow=classic;html=1;exitX=0.25;exitY=0;exitDx=0;exitDy=0;entryX=0.25;entryY=1;entryDx=0;entryDy=0;" edge="1" parent="1" source="pUdsgsDDToOgOxMUS9t4-27" target="pUdsgsDDToOgOxMUS9t4-1">
          <mxGeometry width="50" height="50" relative="1" as="geometry">
            <mxPoint x="614" y="530" as="sourcePoint" />
            <mxPoint x="210" y="240" as="targetPoint" />
          </mxGeometry>
        </mxCell>
      </root>
    </mxGraphModel>
  </diagram>
</mxfile>
